HIERARCHY
ROOT Hips
{
 OFFSET 0.000000 0.000000 0.000000
 CHANNELS 6 Xposition Yposition Zposition Yrotation Xrotation Zrotation
 JOINT Chest
 {
  OFFSET 0.000000 9.585900 0.002600
  CHANNELS 3 Yrotation Xrotation Zrotation
  JOINT Chest2
  {
   OFFSET 0.000000 9.601200 -0.005300
   CHANNELS 3 Yrotation Xrotation Zrotation
   JOINT Chest3
   {
    OFFSET 0.000000 9.561800 0.000000
    CHANNELS 3 Yrotation Xrotation Zrotation
    JOINT Chest4
    {
     OFFSET 0.000000 9.552100 0.000000
     CHANNELS 3 Yrotation Xrotation Zrotation
     JOINT Neck
     {
      OFFSET 0.000000 14.453000 0.000000
      CHANNELS 3 Yrotation Xrotation Zrotation
      JOINT Head
      {
       OFFSET 0.000000 8.936500 -0.011300
       CHANNELS 3 Yrotation Xrotation Zrotation
       End Site
       {
        OFFSET 0.000000 17.073600 -0.006000
       }
      }
     }
     JOINT RightCollar
     {
      OFFSET -2.921100 9.558500 0.000000
      CHANNELS 3 Yrotation Xrotation Zrotation
      JOINT RightShoulder
      {
       OFFSET -13.519700 0.000000 0.000000
       CHANNELS 3 Yrotation Xrotation Zrotation
       JOINT RightElbow
       {
        OFFSET 0.000000 -29.696600 0.000000
        CHANNELS 3 Yrotation Xrotation Zrotation
        JOINT RightWrist
        {
         OFFSET 0.000000 -24.004700 0.000000
         CHANNELS 3 Yrotation Xrotation Zrotation
         End Site
         {
          OFFSET 0.000000 -17.728500 0.000000
         }
        }
       }
      }
     }
     JOINT LeftCollar
     {
      OFFSET 2.921100 9.558500 0.000000
      CHANNELS 3 Yrotation Xrotation Zrotation
      JOINT LeftShoulder
      {
       OFFSET 13.519700 0.000000 0.000000
       CHANNELS 3 Yrotation Xrotation Zrotation
       JOINT LeftElbow
       {
        OFFSET 0.000000 -29.696600 0.000000
        CHANNELS 3 Yrotation Xrotation Zrotation
        JOINT LeftWrist
        {
         OFFSET 0.000000 -24.004700 0.000000
         CHANNELS 3 Yrotation Xrotation Zrotation
         End Site
         {
          OFFSET 0.000000 -17.728500 0.000000
         }
        }
       }
      }
     }
    }
   }
  }
 }
 JOINT RightHip
 {
  OFFSET -7.771700 -0.012900 -0.001300
  CHANNELS 3 Yrotation Xrotation Zrotation
  JOINT RightKnee
  {
   OFFSET 0.000000 -40.869800 0.001200
   CHANNELS 3 Yrotation Xrotation Zrotation
   JOINT RightAnkle
   {
    OFFSET 0.000000 -39.717900 0.002100
    CHANNELS 3 Yrotation Xrotation Zrotation
    JOINT RightToe
    {
     OFFSET 0.000000 -4.965400 11.033500
     CHANNELS 3 Yrotation Xrotation Zrotation
     End Site
     {
      OFFSET 0.000000 -1.423100 5.872300
     }
    }
   }
  }
 }
 JOINT LeftHip
 {
  OFFSET 7.771700 -0.012900 -0.001300
  CHANNELS 3 Yrotation Xrotation Zrotation
  JOINT LeftKnee
  {
   OFFSET 0.000000 -40.869800 0.001200
   CHANNELS 3 Yrotation Xrotation Zrotation
   JOINT LeftAnkle
   {
    OFFSET 0.000000 -39.717900 0.002100
    CHANNELS 3 Yrotation Xrotation Zrotation
    JOINT LeftToe
    {
     OFFSET 0.000000 -4.965400 11.033500
     CHANNELS 3 Yrotation Xrotation Zrotation
     End Site
     {
      OFFSET 0.000000 -1.423100 5.872300
     }
    }
   }
  }
 }
}
MOTION
Frames: 11
Frame Time: 0.008333
-57.918497 43.887734 19.680360 174.282534 -20.263359 -2.695570 -0.121791 16.118569 2.439898 -0.054029 1.627044 0.292295 -0.074743 2.715062 0.496770 -0.128987 14.293016 2.620515 -1.339300 17.497291 -2.309264 -0.889476 -7.305404 -2.130599 5.666773 2.667916 -9.087906 -3.175582 -7.407556 1.113617 -106.148073 -84.454475 118.583958 -6.144459 5.253079 -36.891187 -7.229679 -0.682405 -0.496190 9.114228 -7.053861 -1.352209 92.719983 -71.642480 -113.044516 22.508299 12.925118 44.677751 -6.702747 -70.511562 17.603346 -144.090263 64.717046 -142.688301 -10.441755 -27.475267 8.614164 0.226161 -0.809034 0.090153 2.611872 -59.104686 2.748357 176.288845 60.453117 176.321566 -2.796186 -40.040296 3.837708 0.017471 0.095979 0.012497
-57.917205 43.887420 19.681365 174.272610 -20.262473 -2.688794 -0.109328 16.112065 2.442705 -0.049784 1.629519 0.292110 -0.073248 2.715557 0.496440 -0.112890 14.292254 2.621874 -1.357552 17.498492 -2.309781 -0.890758 -7.306695 -2.130491 5.662902 2.651567 -9.101075 -3.181011 -7.393169 1.102750 -106.406583 -84.439877 118.853801 -6.140622 5.261361 -36.883000 -7.254008 -0.688382 -0.483898 9.118683 -7.059370 -1.344086 92.688933 -71.628162 -113.015927 22.490358 12.913126 44.687626 -6.703178 -70.513237 17.607430 -144.084718 64.721564 -142.680117 -10.441173 -27.470970 8.601544 0.243762 -0.820215 0.096458 2.619143 -59.105413 2.753747 176.296184 60.454766 176.325385 -2.799028 -40.037123 3.837832 0.016753 0.094546 0.012403
-57.913575 43.887094 19.682629 174.256493 -20.262403 -2.692873 -0.086650 16.104644 2.459922 -0.050709 1.630708 0.291031 -0.071531 2.715863 0.496368 -0.111753 14.295120 2.620074 -1.338578 17.492505 -2.312377 -0.911393 -7.300706 -2.123831 5.670806 2.636574 -9.116384 -3.153603 -7.386481 1.071112 -106.872932 -84.409855 119.317530 -6.158998 5.292653 -36.890141 -7.260520 -0.694801 -0.472436 9.119623 -7.054842 -1.349165 92.766606 -71.631890 -113.090746 22.500826 12.921461 44.708894 -6.734026 -70.513026 17.651998 -144.056396 64.722318 -142.652766 -10.415046 -27.455061 8.577711 0.226549 -0.830166 0.102464 2.610853 -59.106710 2.784270 176.323989 60.453940 176.350349 -2.788325 -40.036270 3.833619 0.015024 0.093568 0.011959
-57.911982 43.887108 19.682180 174.248984 -20.271937 -2.685761 -0.073238 16.106685 2.463420 -0.053467 1.631540 0.290688 -0.069729 2.716387 0.496187 -0.102413 14.296228 2.619703 -1.351735 17.494843 -2.313612 -0.898846 -7.305911 -2.131307 5.692900 2.603954 -9.142582 -3.179157 -7.345682 1.087012 -106.932650 -84.403860 119.374004 -6.135820 5.279291 -36.859138 -7.272250 -0.715130 -0.439191 9.115860 -7.045039 -1.355852 92.782246 -71.610885 -113.104529 22.502561 12.922780 44.723695 -6.743863 -70.507475 17.663452 -144.030108 64.717369 -142.631398 -10.408266 -27.418283 8.558796 0.221780 -0.857803 0.111770 2.622728 -59.095038 2.781157 176.333759 60.455661 176.359991 -2.784111 -40.035626 3.831080 0.013742 0.092833 0.011529
-57.908703 43.886626 19.683266 174.240761 -20.273743 -2.688257 -0.058290 16.103255 2.474944 -0.048801 1.628477 0.293104 -0.058559 2.711553 0.501386 -0.084748 14.296641 2.624149 -1.375837 17.498558 -2.319668 -0.899789 -7.306210 -2.134890 5.667335 2.597666 -9.156907 -3.183647 -7.328203 1.087496 -107.287116 -84.400135 119.730918 -6.134221 5.289972 -36.843600 -7.308366 -0.719859 -0.428687 9.108021 -7.069534 -1.311103 92.743784 -71.545833 -113.060356 22.509419 12.930325 44.748290 -6.780298 -70.505270 17.702254 -144.006547 64.717598 -142.610587 -10.388102 -27.394457 8.534009 0.212298 -0.876116 0.119897 2.616302 -59.095533 2.803110 176.350311 60.454742 176.375984 -2.786815 -40.031604 3.831666 0.015208 0.090161 0.012242
-57.904931 43.885822 19.685144 174.226430 -20.271825 -2.690685 -0.041199 16.099311 2.484461 -0.035935 1.618754 0.300654 -0.068451 2.719953 0.495046 -0.067184 14.292105 2.628789 -1.356124 17.489406 -2.322345 -0.922641 -7.299404 -2.130071 5.660431 2.585391 -9.165483 -3.178305 -7.317074 1.059656 -107.851523 -84.368302 120.323761 -6.150651 5.317173 -36.863519 -7.327571 -0.721177 -0.421864 9.107975 -7.082801 -1.287791 92.761114 -71.502796 -113.091432 22.527599 12.912609 44.763882 -6.824682 -70.506782 17.752856 -143.989200 64.719665 -142.593827 -10.373637 -27.378430 8.509712 0.240598 -0.876707 0.124939 2.610459 -59.100355 2.833223 176.371069 60.453242 176.393183 -2.788636 -40.027944 3.833056 0.013177 0.088893 0.012691
-57.903001 43.885483 19.685070 174.206526 -20.281641 -2.677310 -0.018192 16.103218 2.481979 -0.036687 1.615314 0.301986 -0.068467 2.725586 0.492712 -0.061595 14.290310 2.630491 -1.356381 17.488392 -2.323314 -0.891797 -7.319259 -2.144204 5.661177 2.574247 -9.170733 -3.185206 -7.302906 1.056535 -108.075099 -84.358834 120.563925 -6.130016 5.285698 -36.809200 -7.334997 -0.723875 -0.413331 9.109683 -7.090364 -1.273323 92.807249 -71.461631 -113.162585 22.535968 12.921648 44.795943 -6.824048 -70.498021 17.760845 -143.988429 64.720444 -142.599962 -10.359182 -27.371324 8.496027 0.233084 -0.870889 0.120978 2.639713 -59.087623 2.834176 176.379392 60.454279 176.396817 -2.797795 -40.028123 3.842337 0.018511 0.090376 0.010431
-57.900160 43.884875 19.685627 174.198801 -20.287903 -2.671852 -0.008319 16.101093 2.484668 -0.035438 1.613422 0.301345 -0.063171 2.717574 0.495999 -0.064766 14.302196 2.626312 -1.355727 17.487877 -2.324648 -0.891656 -7.319632 -2.144536 5.656140 2.574560 -9.172668 -3.179289 -7.304300 1.035306 -108.040381 -84.338871 120.526839 -6.129963 5.284739 -36.806076 -7.345828 -0.744625 -0.373034 9.118208 -7.063028 -1.302857 92.897820 -71.436766 -113.286540 22.537844 12.904379 44.790462 -6.855902 -70.490386 17.787317 -143.988043 64.721961 -142.607493 -10.343322 -27.365499 8.481194 0.215056 -0.852567 0.112716 2.652118 -59.081323 2.838268 176.389049 60.454798 176.404668 -2.798877 -40.027516 3.846248 0.015728 0.091055 0.008891
-57.897369 43.884666 19.684631 174.202939 -20.303604 -2.666988 -0.003595 16.097196 2.489140 -0.038524 1.623507 0.297249 -0.069543 2.723948 0.492837 -0.055564 14.293276 2.628770 -1.334827 17.476861 -2.325623 -0.913498 -7.302478 -2.137849 5.669026 2.566029 -9.182516 -3.191578 -7.286566 1.022543 -108.270040 -84.314932 120.766212 -6.121447 5.287464 -36.784267 -7.358501 -0.739353 -0.364722 9.140584 -7.073543 -1.286069 93.080697 -71.387583 -113.533070 22.549393 12.915002 44.806722 -6.894082 -70.467563 17.805443 -144.022273 64.730136 -142.644114 -10.355389 -27.381564 8.473794 0.225149 -0.840080 0.105803 2.660565 -59.064922 2.837125 176.395958 60.455445 176.409960 -2.806289 -40.025924 3.853095 0.014785 0.090829 0.008208
-57.890650 43.885086 19.682279 174.217041 -20.330532 -2.686069 -0.007384 16.120330 2.507403 -0.033422 1.618720 0.299075 -0.070084 2.724214 0.492322 -0.027091 14.281989 2.633281 -1.359108 17.486547 -2.323472 -0.908696 -7.306179 -2.141134 5.649876 2.563511 -9.187882 -3.203262 -7.266668 1.013050 -108.600918 -84.293623 121.116258 -6.104065 5.280038 -36.722923 -7.398179 -0.727300 -0.354767 9.160488 -7.081844 -1.273471 93.229181 -71.353505 -113.724892 22.550317 12.922666 44.798435 -6.981103 -70.430021 17.862679 -144.114965 64.746230 -142.708027 -10.394873 -27.411662 8.435843 0.252322 -0.830568 0.115861 2.624818 -59.039174 2.875089 176.401021 60.451675 176.420153 -2.805839 -40.029171 3.848907 0.013702 0.091841 0.008209
-57.889963 43.883650 19.682985 174.209228 -20.334834 -2.662148 -0.000924 16.119856 2.489459 -0.030439 1.613801 0.298978 -0.065624 2.723790 0.495067 -0.021691 14.280585 2.631555 -1.362020 17.485424 -2.321901 -0.911319 -7.309311 -2.137307 5.641657 2.551819 -9.192088 -3.210681 -7.248387 1.003388 -109.289763 -84.264830 121.838679 -6.126601 5.337371 -36.744776 -7.430404 -0.741618 -0.307777 9.191774 -7.066775 -1.291672 93.364731 -71.322527 -113.893298 22.541791 12.924460 44.773143 -7.049827 -70.418725 17.900414 -144.154928 64.758359 -142.773682 -10.385973 -27.434965 8.420913 0.235616 -0.818691 0.102556 2.667296 -59.033159 2.838159 176.406394 60.454840 176.424761 -2.805525 -40.027055 3.849098 0.014463 0.092455 0.008419
